REM DIRINDEX 1\2,1\3,1\4,1\5
REM DIRNAME cjc044,folder01,folder02,folder03,folder04
TITLE ""
FILE "1800_126.mp3" MP3
  TRACK 01 AUDIO
    TITLE "2:cjc044_3701"
    INDEX 01 00:00:00
  TRACK 02 AUDIO
    TITLE "0:"
    INDEX 01 00:01:15
  TRACK 03 AUDIO
    TITLE "3:cjc044_3702"
    INDEX 01 00:01:73
  TRACK 04 AUDIO
    TITLE "0:"
    INDEX 01 00:03:00
  TRACK 05 AUDIO
    TITLE "4:cjc044_3703"
    INDEX 01 00:03:59
  TRACK 06 AUDIO
    TITLE "0:"
    INDEX 01 00:05:03
  TRACK 07 AUDIO
    TITLE "5:cjc044_3704"
    INDEX 01 00:05:48
  TRACK 08 AUDIO
    TITLE "0:"
    INDEX 01 00:09:18
  TRACK 09 AUDIO
    TITLE "2:cjc044_3705"
    INDEX 01 00:11:03
  TRACK 10 AUDIO
    TITLE "0:"
    INDEX 01 00:12:12
  TRACK 11 AUDIO
    TITLE "3:cjc044_3706"
    INDEX 01 00:12:73
  TRACK 12 AUDIO
    TITLE "0:"
    INDEX 01 00:14:21
  TRACK 13 AUDIO
    TITLE "4:cjc044_3707"
    INDEX 01 00:15:03
  TRACK 14 AUDIO
    TITLE "0:"
    INDEX 01 00:16:12
  TRACK 15 AUDIO
    TITLE "5:cjc044_3708"
    INDEX 01 00:17:00
  TRACK 16 AUDIO
    TITLE "0:"
    INDEX 01 00:20:39
  TRACK 17 AUDIO
    TITLE "2:cjc044_3709"
    INDEX 01 00:22:29
  TRACK 18 AUDIO
    TITLE "0:"
    INDEX 01 00:23:42
  TRACK 19 AUDIO
    TITLE "3:cjc044_3710"
    INDEX 01 00:24:24
  TRACK 20 AUDIO
    TITLE "0:"
    INDEX 01 00:25:27
  TRACK 21 AUDIO
    TITLE "4:cjc044_3711"
    INDEX 01 00:26:17
  TRACK 22 AUDIO
    TITLE "0:"
    INDEX 01 00:27:26
  TRACK 23 AUDIO
    TITLE "5:cjc044_3712"
    INDEX 01 00:28:08
  TRACK 24 AUDIO
    TITLE "0:"
    INDEX 01 00:31:31
  TRACK 25 AUDIO
    TITLE "2:cjc044_3713"
    INDEX 01 00:33:17
  TRACK 26 AUDIO
    TITLE "0:"
    INDEX 01 00:34:18
  TRACK 27 AUDIO
    TITLE "3:cjc044_3714"
    INDEX 01 00:35:14
  TRACK 28 AUDIO
    TITLE "0:"
    INDEX 01 00:36:23
  TRACK 29 AUDIO
    TITLE "4:cjc044_3715"
    INDEX 01 00:37:10
  TRACK 30 AUDIO
    TITLE "0:"
    INDEX 01 00:38:12
  TRACK 31 AUDIO
    TITLE "5:cjc044_3716"
    INDEX 01 00:38:59
  TRACK 32 AUDIO
    TITLE "0:"
    INDEX 01 00:41:42
  TRACK 33 AUDIO
    TITLE "2:cjc044_3717"
    INDEX 01 00:43:25
  TRACK 34 AUDIO
    TITLE "0:"
    INDEX 01 00:44:42
  TRACK 35 AUDIO
    TITLE "3:cjc044_3718"
    INDEX 01 00:45:24
  TRACK 36 AUDIO
    TITLE "0:"
    INDEX 01 00:46:66
  TRACK 37 AUDIO
    TITLE "4:cjc044_3719"
    INDEX 01 00:47:52
  TRACK 38 AUDIO
    TITLE "0:"
    INDEX 01 00:48:69
  TRACK 39 AUDIO
    TITLE "5:cjc044_3720"
    INDEX 01 00:49:59
  TRACK 40 AUDIO
    TITLE "0:"
    INDEX 01 00:52:69
  TRACK 41 AUDIO
    TITLE "2:cjc044_3721"
    INDEX 01 00:54:62
  TRACK 42 AUDIO
    TITLE "0:"
    INDEX 01 00:55:63
  TRACK 43 AUDIO
    TITLE "3:cjc044_3722"
    INDEX 01 00:56:57
  TRACK 44 AUDIO
    TITLE "0:"
    INDEX 01 00:57:45
  TRACK 45 AUDIO
    TITLE "4:cjc044_3723"
    INDEX 01 00:58:32
  TRACK 46 AUDIO
    TITLE "0:"
    INDEX 01 00:59:30
  TRACK 47 AUDIO
    TITLE "5:cjc044_3724"
    INDEX 01 01:00:04
  TRACK 48 AUDIO
    TITLE "0:"
    INDEX 01 01:03:08
  TRACK 49 AUDIO
    TITLE "2:cjc044_3725"
    INDEX 01 01:05:07
  TRACK 50 AUDIO
    TITLE "0:"
    INDEX 01 01:06:00
  TRACK 51 AUDIO
    TITLE "3:cjc044_3726"
    INDEX 01 01:06:63
  TRACK 52 AUDIO
    TITLE "0:"
    INDEX 01 01:08:35
  TRACK 53 AUDIO
    TITLE "4:cjc044_3727"
    INDEX 01 01:09:14
  TRACK 54 AUDIO
    TITLE "0:"
    INDEX 01 01:10:08
  TRACK 55 AUDIO
    TITLE "5:cjc044_3728"
    INDEX 01 01:10:71
  TRACK 56 AUDIO
    TITLE "0:"
    INDEX 01 01:14:53
  TRACK 57 AUDIO
    TITLE "2:cjc044_3729"
    INDEX 01 01:16:36
  TRACK 58 AUDIO
    TITLE "0:"
    INDEX 01 01:17:41
  TRACK 59 AUDIO
    TITLE "3:cjc044_3730"
    INDEX 01 01:18:31
  TRACK 60 AUDIO
    TITLE "0:"
    INDEX 01 01:19:54
  TRACK 61 AUDIO
    TITLE "4:cjc044_3731"
    INDEX 01 01:20:40
  TRACK 62 AUDIO
    TITLE "0:"
    INDEX 01 01:21:53
  TRACK 63 AUDIO
    TITLE "5:cjc044_3732"
    INDEX 01 01:22:33
  TRACK 64 AUDIO
    TITLE "0:"
    INDEX 01 01:25:35
  TRACK 65 AUDIO
    TITLE "2:cjc044_3733"
    INDEX 01 01:27:20
  TRACK 66 AUDIO
    TITLE "0:"
    INDEX 01 01:28:20
  TRACK 67 AUDIO
    TITLE "3:cjc044_3734"
    INDEX 01 01:29:09
  TRACK 68 AUDIO
    TITLE "0:"
    INDEX 01 01:30:30
  TRACK 69 AUDIO
    TITLE "4:cjc044_3735"
    INDEX 01 01:31:12
  TRACK 70 AUDIO
    TITLE "0:"
    INDEX 01 01:32:13
  TRACK 71 AUDIO
    TITLE "5:cjc044_3736"
    INDEX 01 01:32:74
  TRACK 72 AUDIO
    TITLE "0:"
    INDEX 01 01:35:35
  TRACK 73 AUDIO
    TITLE "2:cjc044_3737"
    INDEX 01 01:37:21
  TRACK 74 AUDIO
    TITLE "0:"
    INDEX 01 01:38:24
  TRACK 75 AUDIO
    TITLE "3:cjc044_3738"
    INDEX 01 01:39:12
  TRACK 76 AUDIO
    TITLE "0:"
    INDEX 01 01:40:05
  TRACK 77 AUDIO
    TITLE "4:cjc044_3739"
    INDEX 01 01:40:68
  TRACK 78 AUDIO
    TITLE "0:"
    INDEX 01 01:41:71
  TRACK 79 AUDIO
    TITLE "5:cjc044_3740"
    INDEX 01 01:42:61
  TRACK 80 AUDIO
    TITLE "0:"
    INDEX 01 01:46:23
